<svg id="visual" viewBox="0 0 1080 1920" width="1080" height="1920" xmlns="http://www.w3.org/2000/svg" xmlns:xlink="http://www.w3.org/1999/xlink" version="1.1"><rect x="0" y="0" width="1080" height="1920" fill="#140021"></rect><path d="M0 922L154 922L154 805L309 805L309 826L463 826L463 939L617 939L617 1008L771 1008L771 959L926 959L926 1155L1080 1155L1080 1041L1080 1921L1080 1921L926 1921L926 1921L771 1921L771 1921L617 1921L617 1921L463 1921L463 1921L309 1921L309 1921L154 1921L154 1921L0 1921Z" fill="#9900ff"></path><path d="M0 1226L154 1226L154 1409L309 1409L309 1317L463 1317L463 1246L617 1246L617 1198L771 1198L771 1256L926 1256L926 1135L1080 1135L1080 1151L1080 1921L1080 1921L926 1921L926 1921L771 1921L771 1921L617 1921L617 1921L463 1921L463 1921L309 1921L309 1921L154 1921L154 1921L0 1921Z" fill="#7700c6"></path><path d="M0 1628L154 1628L154 1536L309 1536L309 1460L463 1460L463 1562L617 1562L617 1706L771 1706L771 1644L926 1644L926 1520L1080 1520L1080 1570L1080 1921L1080 1921L926 1921L926 1921L771 1921L771 1921L617 1921L617 1921L463 1921L463 1921L309 1921L309 1921L154 1921L154 1921L0 1921Z" fill="#560090"></path></svg>